<?xml version="1.0" standalone="no"?>
<!DOCTYPE svg PUBLIC "-//W3C//DTD SVG 20010904//EN"
 "http://www.w3.org/TR/2001/REC-SVG-20010904/DTD/svg10.dtd">
<svg version="1.0" xmlns="http://www.w3.org/2000/svg"
 width="24.000000pt" height="24.000000pt" viewBox="0 0 24.000000 24.000000"
 preserveAspectRatio="xMidYMid meet">

<g transform="translate(0.000000,24.000000) scale(0.100000,-0.100000)"
fill="#000000" stroke="none">
<path d="M1 163 c0 -43 3 -72 6 -65 2 6 13 12 24 12 16 0 19 -7 19 -46 0 -44
-1 -46 -25 -42 -17 4 -25 1 -25 -8 0 -11 25 -14 120 -14 95 0 120 3 120 14 0
9 -8 12 -25 8 -24 -4 -25 -2 -25 42 0 47 13 59 38 34 9 -9 12 5 12 65 l0 77
-120 0 -120 0 1 -77z m149 42 c15 -18 10 -45 -12 -59 -35 -22 -74 27 -48 59
16 19 44 19 60 0z m-76 -41 c7 -19 -10 -44 -31 -44 -17 0 -27 24 -19 45 7 20
42 19 50 -1z m144 -12 c4 -28 -24 -41 -44 -20 -20 20 -7 50 20 46 13 -2 22
-12 24 -26z m-48 -41 c5 -11 10 -36 10 -55 l0 -36 -60 0 -60 0 0 36 c0 56 15
74 60 74 29 0 42 -5 50 -19z"/>
</g>
</svg>
